<svg version="1.1" id="Layer_1" xmlns="http://www.w3.org/2000/svg" xmlns:xlink="http://www.w3.org/1999/xlink" x="0px" y="0px"
	 width="100%" viewBox="0 0 980 980" enable-background="new 0 0 980 980" xml:space="preserve">
<path fill="#000000" opacity="1.000000" stroke="none" 
	d="
M980.771118,485.639252 
	C981.000000,489.030609 981.000000,492.061188 981.000000,495.545898 
	C979.904114,499.631836 980.751526,503.354462 980.485046,507.453308 
	C980.516479,511.014496 980.416992,514.148132 980.770996,517.640259 
	C981.000000,518.444458 981.000000,518.888916 981.000000,519.666687 
	C979.673645,527.867126 980.266541,535.853821 979.454651,543.765686 
	C976.314392,574.364685 970.174561,604.359741 961.228271,633.756348 
	C952.769958,661.549316 942.050476,688.479492 928.759399,714.333679 
	C911.087585,748.709412 889.761353,780.641357 864.540344,809.971802 
	C833.821350,845.696045 798.992310,876.746643 759.535461,902.521423 
	C716.367798,930.720337 669.888794,951.591309 620.103333,965.091187 
	C593.998291,972.169800 567.533325,977.314453 540.594238,979.749207 
	C533.827454,980.360840 526.980347,980.613281 519.749084,980.484680 
	C516.838135,980.484985 514.331177,980.484558 511.397339,980.484985 
	C507.225342,980.518982 503.479431,980.412659 499.367371,980.771851 
	C493.977905,981.000000 488.955811,981.000000 483.466858,981.000000 
	C479.361969,979.904175 475.633301,980.751465 471.531860,980.485046 
	C468.593658,980.484436 466.080139,980.484741 463.163269,980.485229 
	C436.465637,980.648315 410.704285,976.406433 385.138214,970.826904 
	C354.625702,964.167847 325.035492,954.558533 296.356415,942.183655 
	C254.188293,923.988281 215.266434,900.424866 179.873947,871.148254 
	C130.038010,829.923889 89.308739,781.199890 58.524220,724.160522 
	C30.196592,671.673401 12.314852,615.877441 3.975858,556.926880 
	C2.273734,544.894104 1.623835,532.773315 1.227293,520.313232 
	C1.000000,519.250000 1.000000,518.500000 1.000000,517.375000 
	C2.083122,514.303589 1.252619,511.487793 1.515036,508.317841 
	C1.482736,504.501587 1.583780,501.106934 1.229198,497.356750 
	C1.000000,493.307098 1.000000,489.614166 1.000000,485.460632 
	C2.128418,481.689362 1.225059,478.274872 1.514958,474.497070 
	C1.515316,472.101410 1.515322,470.130035 1.514859,467.742920 
	C1.514926,465.961792 1.515503,464.596405 1.514818,462.832672 
	C1.321890,435.795349 5.761099,409.731506 11.461281,383.848480 
	C20.355648,343.461426 34.318111,304.862885 53.091496,268.028961 
	C70.406296,234.056824 91.325249,202.443390 116.138329,173.472992 
	C147.191895,137.216553 182.389130,105.596283 222.426865,79.493919 
	C265.739685,51.256355 312.364136,30.405737 362.260742,16.790438 
	C388.356476,9.669689 414.850159,4.805994 441.743286,2.217331 
	C448.328552,1.583450 455.014496,1.259299 462.078064,1.515241 
	C464.136719,1.515168 465.792847,1.515280 467.876099,1.515125 
	C472.953735,1.478705 477.604919,1.590585 482.627502,1.227650 
	C488.022095,1.000000 493.044189,1.000000 498.533142,1.000000 
	C503.248932,2.074776 507.573425,1.263501 512.280457,1.514874 
	C514.653137,1.515274 516.600647,1.515373 518.950684,1.514754 
	C544.809387,1.306296 569.766541,5.355746 594.557739,10.570181 
	C619.383911,15.791970 643.617188,23.129425 667.282104,32.244514 
	C712.360718,49.607601 753.893982,73.237968 792.170776,102.744064 
	C814.023376,119.589409 834.015076,138.442871 852.700684,158.586166 
	C880.104309,188.127609 903.340820,220.768997 922.652527,256.234253 
	C942.693970,293.039612 957.615479,331.781769 967.869080,372.334869 
	C973.671692,395.284515 977.828003,418.581055 979.817078,442.186707 
	C980.358948,448.616608 980.697754,455.132263 980.484802,462.027344 
	C980.484741,464.069000 980.484680,465.710175 980.484863,467.771729 
	C980.484680,470.465027 980.484680,472.737946 980.485046,475.438751 
	C980.516541,479.003845 980.416748,482.141846 980.771118,485.639252 
z"/>
<path fill="#FFFFFF" opacity="1.000000" stroke="none" 
	d="
M1.000000,520.468628 
	C3.145872,523.918884 2.314260,528.303467 2.750249,532.445496 
	C20.723793,703.198425 104.295746,831.770996 251.966141,918.591492 
	C299.647827,946.625183 351.576508,963.992126 406.019623,973.650146 
	C424.218445,976.878540 442.567322,979.087097 461.493530,980.068909 
	C462.125122,980.242126 462.309875,980.379700 462.247314,980.758667 
	C309.905548,981.000000 157.811066,980.978333 5.716720,981.115662 
	C1.597367,981.119385 0.889436,980.208862 0.892767,976.221069 
	C1.019527,824.459839 1.000000,672.698608 1.000000,520.468628 
z"/>
<path fill="#FFFFFF" opacity="1.000000" stroke="none" 
	d="
M519.782837,980.310669 
	C627.760254,973.237427 723.372620,935.540222 805.951721,866.153564 
	C885.741028,799.111084 938.777588,714.712646 965.403625,613.857117 
	C973.498779,583.193970 978.062683,551.959412 980.611328,520.174866 
	C981.000000,672.094482 980.978333,824.188904 981.115662,976.283264 
	C981.119385,980.402649 980.208862,981.110535 976.221069,981.107178 
	C824.459839,980.980408 672.698608,981.000000 520.468628,981.000000 
	C519.835144,980.838928 519.670227,980.677917 519.782837,980.310669 
z"/>
<path fill="#FFFFFF" opacity="1.000000" stroke="none" 
	d="
M462.218719,1.658791 
	C253.965057,14.207369 76.388733,156.861252 19.420986,357.441620 
	C9.800010,391.316559 3.964336,425.865601 1.903274,461.490662 
	C1.720964,462.125153 1.591798,462.310883 1.231316,462.248291 
	C1.000000,309.905548 1.021690,157.811066 0.884336,5.716720 
	C0.880615,1.597356 1.791124,0.889438 5.778967,0.892769 
	C157.540131,1.019524 309.301422,1.000000 461.531342,1.000000 
	C462.165436,1.154454 462.330902,1.308908 462.218719,1.658791 
z"/>
<path fill="#FFFFFF" opacity="1.000000" stroke="none" 
	d="
M980.337646,462.219360 
	C968.915710,273.160889 850.741150,108.525856 674.909668,36.761570 
	C629.328186,18.157829 581.985229,6.876011 532.912354,2.874965 
	C528.930359,2.550303 524.945129,2.264594 520.511719,1.918981 
	C519.876099,1.743389 519.690247,1.609601 519.752197,1.237906 
	C672.094421,1.000000 824.188904,1.021688 976.283203,0.884342 
	C980.402466,0.880623 981.110474,1.790951 981.107178,5.778911 
	C980.980408,157.540100 981.000000,309.301392 981.000000,461.531342 
	C980.844971,462.165375 980.690002,462.330719 980.337646,462.219360 
z"/>
<path fill="#5C5C5C" opacity="1.000000" stroke="none" 
	d="
M482.533875,1.000000 
	C478.348480,2.342227 473.554321,1.784598 468.360992,1.962834 
	C467.779816,1.701884 467.660706,1.542371 467.770813,1.191429 
	C472.689240,1.000000 477.378510,1.000000 482.533875,1.000000 
z"/>
<path fill="#5C5C5C" opacity="1.000000" stroke="none" 
	d="
M513.276367,1.614143 
	C508.609009,2.270885 504.152832,1.767139 499.345825,1.208831 
	C503.356903,1.000000 507.713776,1.000000 512.535339,1.000000 
	C513.152588,1.126283 513.305176,1.252565 513.276367,1.614143 
z"/>
<path fill="#4F4F4F" opacity="1.000000" stroke="none" 
	d="
M470.718079,980.418579 
	C474.712067,979.769409 478.533386,980.102356 482.676300,980.755371 
	C479.307098,981.000000 475.614166,981.000000 471.460632,981.000000 
	C470.855560,980.883911 470.711090,980.767822 470.718079,980.418579 
z"/>
<path fill="#4F4F4F" opacity="1.000000" stroke="none" 
	d="
M499.460632,981.000000 
	C502.631317,979.459839 506.479279,980.325256 510.674896,980.087524 
	C511.231567,980.340942 511.332397,980.496338 511.216614,980.825928 
	C507.307098,981.000000 503.614166,981.000000 499.460632,981.000000 
z"/>
<path fill="#2B2B2B" opacity="1.000000" stroke="none" 
	d="
M980.385254,508.296356 
	C979.939880,504.295959 979.747559,500.439301 980.721680,496.303101 
	C981.000000,499.692902 981.000000,503.385834 981.000000,507.539368 
	C980.877686,508.146667 980.755371,508.293335 980.385254,508.296356 
z"/>
<path fill="#2B2B2B" opacity="1.000000" stroke="none" 
	d="
M1.593140,473.700928 
	C2.074245,477.358887 2.254899,480.892029 1.281694,484.701294 
	C1.000000,481.638702 1.000000,478.277435 1.000000,474.458069 
	C1.116214,473.859222 1.232429,473.718414 1.593140,473.700928 
z"/>
<path fill="#2B2B2B" opacity="1.000000" stroke="none" 
	d="
M1.000000,497.458069 
	C2.943093,500.261566 1.585596,503.845062 1.921721,507.713318 
	C1.679535,508.256042 1.515990,508.341187 1.176223,508.213135 
	C1.000000,504.638702 1.000000,501.277435 1.000000,497.458069 
z"/>
<path fill="#232323" opacity="1.000000" stroke="none" 
	d="
M981.000000,485.545898 
	C979.092834,483.073944 980.371521,479.814026 980.096558,476.270752 
	C980.328003,475.738739 980.491028,475.660126 980.827026,475.790741 
	C981.000000,479.030609 981.000000,482.061188 981.000000,485.545898 
z"/>
<path fill="#7C7C7C" opacity="1.000000" stroke="none" 
	d="
M980.132080,508.590759 
	C980.137451,508.152740 980.567078,508.067017 980.783569,508.033508 
	C981.000000,511.030609 981.000000,514.061218 981.000000,517.545898 
	C978.630981,515.211853 980.593079,512.002136 980.132080,508.590759 
z"/>
<path fill="#9B9B9B" opacity="1.000000" stroke="none" 
	d="
M470.428284,980.155884 
	C470.869507,980.185486 470.935364,980.592651 470.967682,980.796326 
	C468.299927,981.000000 465.599854,981.000000 462.449890,981.000000 
	C462.000000,981.000000 462.109802,980.542969 462.025085,980.323730 
	C464.622559,980.111755 467.304810,980.119019 470.428284,980.155884 
z"/>
<path fill="#9B9B9B" opacity="1.000000" stroke="none" 
	d="
M511.449890,981.000000 
	C511.000000,981.000000 511.063751,980.592346 511.097229,980.388916 
	C513.812866,980.090698 516.494995,979.995911 519.618774,980.002808 
	C520.060425,980.104431 519.890686,980.542847 519.945312,980.771423 
	C517.299927,981.000000 514.599854,981.000000 511.449890,981.000000 
z"/>
<path fill="#7C7C7C" opacity="1.000000" stroke="none" 
	d="
M1.000000,508.449982 
	C1.000000,508.000000 1.420991,508.089691 1.632035,508.130310 
	C1.821218,511.004791 1.799356,513.838684 1.388747,516.836304 
	C1.000000,514.299988 1.000000,511.599976 1.000000,508.449982 
z"/>
<path fill="#686868" opacity="1.000000" stroke="none" 
	d="
M981.000000,475.555847 
	C981.000000,476.000000 980.582642,475.905518 980.373901,475.861450 
	C980.096863,473.469513 980.028687,471.121643 980.060303,468.338989 
	C980.315552,467.784393 980.471008,467.664581 980.813232,467.772369 
	C981.000000,470.370575 981.000000,472.741119 981.000000,475.555847 
z"/>
<path fill="#7C7C7C" opacity="1.000000" stroke="none" 
	d="
M1.845499,473.395538 
	C1.837637,473.824280 1.416537,473.901276 1.208268,473.950623 
	C1.000000,471.958344 1.000000,469.916656 1.000000,467.437500 
	C1.125503,466.846008 1.251007,466.692017 1.601004,466.733978 
	C1.834785,468.942230 1.844072,470.954498 1.845499,473.395538 
z"/>
<path fill="#A4A4A4" opacity="1.000000" stroke="none" 
	d="
M513.526306,1.883023 
	C513.094971,1.849438 513.017151,1.428112 513.008545,1.214056 
	C515.041687,1.000000 517.083374,1.000000 519.562500,1.000000 
	C520.000000,1.000000 519.945740,1.444615 520.003906,1.660896 
	C518.027222,1.890320 515.992432,1.903464 513.526306,1.883023 
z"/>
<path fill="#B3B3B3" opacity="1.000000" stroke="none" 
	d="
M981.000000,467.571564 
	C981.000000,468.000000 980.584534,467.912872 980.372314,467.908539 
	C980.090332,466.195496 980.020569,464.486786 980.045471,462.360352 
	C980.140137,461.942657 980.572144,461.940460 980.786072,461.970215 
	C981.000000,463.714386 981.000000,465.428741 981.000000,467.571564 
z"/>
<path fill="#B3B3B3" opacity="1.000000" stroke="none" 
	d="
M467.571289,1.000000 
	C468.000000,1.000000 467.997070,1.436293 467.947998,1.648845 
	C466.191437,1.922548 464.483917,1.983699 462.358765,1.949535 
	C461.941101,1.854220 462.011597,1.429941 462.005798,1.214970 
	C463.714172,1.000000 465.428375,1.000000 467.571289,1.000000 
z"/>
<path fill="#B3B3B3" opacity="1.000000" stroke="none" 
	d="
M1.877412,466.516296 
	C1.825497,466.929932 1.410822,466.942261 1.205411,466.971130 
	C1.000000,465.611115 1.000000,464.222198 1.000000,462.416656 
	C1.000000,462.000000 1.423135,461.942596 1.636633,461.940979 
	C1.876530,463.327148 1.902928,464.714905 1.877412,466.516296 
z"/>
<path fill="#FEFEFE" opacity="1.000000" stroke="none" 
	d="
M659.255371,295.205200 
	C660.127014,287.939575 660.193237,281.095520 659.630615,274.287720 
	C659.384277,271.306183 660.347656,270.689270 663.047607,270.565002 
	C680.048218,269.782410 697.034790,270.666443 714.016296,271.053223 
	C723.835388,271.276886 730.234741,278.859955 730.889526,289.884613 
	C731.106384,293.536133 730.878540,297.213226 730.878479,300.878632 
	C730.875977,444.857697 730.875000,588.836792 730.881409,732.815857 
	C730.881653,737.820557 730.731934,742.793152 729.238098,747.635925 
	C726.262634,757.281616 719.584045,762.660034 709.632874,763.254395 
	C707.141907,763.403076 704.636658,763.331848 702.138000,763.331909 
	C561.158447,763.334839 420.178925,763.336853 279.199402,763.320251 
	C275.870331,763.319824 272.516052,763.328552 269.216858,762.952637 
	C258.520905,761.733948 250.929596,753.972595 249.971649,743.243958 
	C249.646759,739.605103 249.788620,735.920776 249.788437,732.257263 
	C249.781311,588.111511 249.779633,443.965790 249.794205,299.820068 
	C249.794708,294.833344 249.613953,289.828796 251.006439,284.935913 
	C253.548599,276.003418 260.042175,270.903625 269.278931,270.943604 
	C284.936127,271.011383 300.593750,271.337219 316.248932,271.227692 
	C319.970367,271.201660 320.167480,272.735352 320.093628,275.640717 
	C319.686005,291.670715 320.385101,307.605621 324.979797,323.126587 
	C325.450684,324.717285 325.992706,326.290558 326.578064,327.843109 
	C334.648132,349.246216 349.613678,357.571594 372.142883,353.621887 
	C396.690369,349.318329 409.194824,333.227051 414.903015,310.458130 
	C417.798553,298.908386 418.571777,287.096100 417.721283,275.233521 
	C417.498566,272.127319 418.180389,271.061127 421.365631,271.192108 
	C427.022552,271.424713 432.705383,271.531555 438.355347,271.249847 
	C442.005219,271.067902 442.738129,272.394867 442.685577,275.798676 
	C442.445740,291.330139 443.475891,306.733276 447.987732,321.749756 
	C459.447906,359.891998 492.201385,358.519226 513.774048,343.630310 
	C527.322632,334.279419 533.636353,320.332123 536.913391,304.735321 
	C539.051575,294.558502 539.517029,284.250153 538.739502,273.915161 
	C538.517090,270.959137 539.336731,270.109100 542.177734,270.183411 
	C547.838684,270.331451 553.517151,270.422272 559.167908,270.134125 
	C562.932007,269.942230 563.858887,271.335632 564.039429,274.957214 
	C564.821594,290.643188 567.239014,306.070770 573.046265,320.776367 
	C577.208740,331.316742 582.979431,340.758118 592.691528,347.177338 
	C610.943542,359.241028 634.815308,354.284790 647.116089,335.814331 
	C655.195862,323.681793 657.979065,309.889740 659.255371,295.205200 
z"/>
<path fill="#FEFEFE" opacity="1.000000" stroke="none" 
	d="
M512.502441,255.049866 
	C512.501831,272.183258 512.571289,288.825043 512.476318,305.465851 
	C512.411377,316.851654 506.917908,325.339569 497.750305,328.690857 
	C483.790070,333.794189 468.552368,323.621399 468.211426,308.216461 
	C467.740204,286.926178 467.864838,265.614502 468.172485,244.318329 
	C468.350677,231.980316 478.375916,222.352493 490.163086,222.251999 
	C501.731964,222.153366 511.318054,231.307373 512.307922,243.582916 
	C512.601440,247.222794 512.450012,250.898529 512.502441,255.049866 
z"/>
<path fill="#FEFEFE" opacity="1.000000" stroke="none" 
	d="
M347.584534,229.627625 
	C354.762604,222.429138 362.929291,220.258148 372.017822,224.050201 
	C381.441650,227.982162 385.905212,235.654282 385.964264,245.716827 
	C386.083527,266.037292 386.074921,286.359314 385.970764,306.679932 
	C385.904083,319.692871 376.322601,329.797089 364.173279,329.986176 
	C351.875427,330.177551 341.937347,320.521484 341.768738,307.430634 
	C341.500549,286.613495 341.691986,265.790405 341.697388,244.969818 
	C341.698883,239.247116 343.621826,234.231918 347.584534,229.627625 
z"/>
<path fill="#FEFEFE" opacity="1.000000" stroke="none" 
	d="
M608.826904,223.558716 
	C623.460876,218.485733 638.511108,230.013443 638.212280,246.281387 
	C637.845398,266.256104 638.190125,286.242981 638.102417,306.224060 
	C638.042297,319.928314 628.436340,330.064911 615.831238,329.985931 
	C603.445374,329.908325 593.959656,319.827393 593.899963,306.396515 
	C593.809692,286.082489 593.800903,265.767273 593.913513,245.453430 
	C593.970825,235.107758 598.837952,227.768036 608.826904,223.558716 
z"/>
<path fill="#010101" opacity="1.000000" stroke="none" 
	d="
M426.000244,414.666290 
	C499.649994,414.666290 572.802063,414.980896 645.947937,414.445618 
	C664.282410,414.311432 674.580566,427.953735 670.109863,446.663727 
	C667.851074,456.116882 659.996765,462.282928 650.319702,462.839050 
	C649.322754,462.896393 648.320740,462.874481 647.321106,462.874481 
	C543.178528,462.875824 439.035919,462.850525 334.893402,462.917297 
	C325.160767,462.923523 317.358276,459.502136 313.397797,450.490540 
	C309.300598,441.167908 309.539856,431.571991 315.730713,422.969666 
	C320.270508,416.661560 326.855499,414.578003 334.521576,414.611633 
	C364.847290,414.744720 395.173920,414.666290 426.000244,414.666290 
z"/>
<path fill="#010101" opacity="1.000000" stroke="none" 
	d="
M374.000061,631.124207 
	C464.476349,631.124207 554.453735,631.357056 644.427979,630.925659 
	C662.194702,630.840515 673.709045,643.807007 668.528870,664.109375 
	C666.235840,673.096252 658.408813,678.780273 649.039001,679.274536 
	C647.709229,679.344788 646.374390,679.331543 645.041870,679.331604 
	C541.235901,679.333801 437.429901,679.337585 333.623932,679.327759 
	C321.431824,679.326660 313.059082,673.967834 310.647430,663.487671 
	C306.014923,643.356445 316.956726,630.314026 334.514709,631.021545 
	C347.490112,631.544434 360.503540,631.124268 374.000061,631.124207 
z"/>
<path fill="#000000" opacity="1.000000" stroke="none" 
	d="
M551.000000,571.075256 
	C478.019318,571.075195 405.538605,571.036682 333.058014,571.120544 
	C323.246765,571.131897 315.544647,567.531372 311.896606,558.360596 
	C308.031677,548.644470 308.085449,538.749390 315.258026,530.145691 
	C319.434052,525.136475 325.013123,522.893555 331.573639,522.912415 
	C349.235413,522.963196 366.897461,522.925171 384.559387,522.925049 
	C471.202972,522.924438 557.848267,523.211731 644.488708,522.688965 
	C662.381165,522.580994 673.719727,535.913391 668.510559,555.878296 
	C666.055359,565.288147 657.713196,571.029175 647.474182,571.048706 
	C615.482910,571.109680 583.491394,571.073669 551.000000,571.075256 
z"/>
</svg>